<?xml version="1.0" encoding="utf-8" ?>
<svg baseProfile="full" height="1024" version="1.1" width="1440" xmlns="http://www.w3.org/2000/svg" xmlns:ev="http://www.w3.org/2001/xml-events" xmlns:xlink="http://www.w3.org/1999/xlink"><defs /><rect fill="#F4F7FB" height="1024" rx="0" ry="0" stroke="none" stroke-width="1" width="1440" x="0" y="0" /><rect fill="#FFFFFF" height="84" rx="0" ry="0" stroke="none" stroke-width="1" width="1440" x="0" y="0" /><line stroke="#D9E2EC" stroke-width="1" x1="0" x2="1440" y1="84" y2="84" /><rect fill="#3B5CCC" height="40" rx="12" ry="12" stroke="none" stroke-width="1" width="40" x="54" y="22" /><text fill="#FFFFFF" font-family="DejaVu Sans" font-size="15" font-weight="700" text-anchor="middle" x="74" y="49">CF</text><text fill="#172033" font-family="DejaVu Sans" font-size="22" font-weight="700" text-anchor="start" x="108" y="51">CampusFlow</text><text fill="#3B5CCC" font-family="DejaVu Sans" font-size="16" font-weight="700" text-anchor="start" x="310" y="51">Каталог</text><rect fill="#3B5CCC" height="3" rx="1" ry="1" stroke="none" stroke-width="1" width="68" x="310" y="72" /><text fill="#667085" font-family="DejaVu Sans" font-size="16" font-weight="500" text-anchor="start" x="410" y="51">Мои события</text><text fill="#667085" font-family="DejaVu Sans" font-size="16" font-weight="500" text-anchor="start" x="550" y="51">Профиль</text><rect fill="#F4F7FB" height="44" rx="12" ry="12" stroke="none" stroke-width="1" width="214" x="1120" y="20" /><text fill="#667085" font-family="DejaVu Sans" font-size="15" font-weight="500" text-anchor="start" x="1150" y="48">Поиск</text><circle cx="1366" cy="42" fill="#EEF2FF" r="20" /><text fill="#3B5CCC" font-family="DejaVu Sans" font-size="12" font-weight="700" text-anchor="middle" x="1366" y="47">AV</text><text fill="#172033" font-family="DejaVu Sans" font-size="34" font-weight="700" text-anchor="start" x="54" y="140">Учебные мероприятия</text><text fill="#667085" font-family="DejaVu Sans" font-size="16" font-weight="500" text-anchor="start" x="54" y="171">Найдите лекцию, мастер-класс или встречу по интересам.</text><rect fill="#FFFFFF" height="52" rx="12" ry="12" stroke="#D9E2EC" stroke-width="1" width="650" x="54" y="205" /><text fill="#667085" font-family="DejaVu Sans" font-size="15" font-weight="500" text-anchor="start" x="78" y="238">Поиск по названию или теме...</text><rect fill="#FFFFFF" height="52" rx="12" ry="12" stroke="#D9E2EC" stroke-width="1" width="180" x="724" y="205" /><text fill="#172033" font-family="DejaVu Sans" font-size="15" font-weight="600" text-anchor="start" x="746" y="238">Сначала новые ▾</text><rect fill="#FFFFFF" height="48" rx="12" ry="12" stroke="#D9E2EC" stroke-width="1" width="110" x="920" y="207" /><text fill="#172033" font-family="DejaVu Sans" font-size="15" font-weight="700" text-anchor="middle" x="975.0" y="238">Сбросить</text><text fill="#667085" font-family="DejaVu Sans" font-size="15" font-weight="700" text-anchor="start" x="54" y="298">Фильтры</text><rect fill="#3B5CCC" height="36" rx="18" ry="18" stroke="none" stroke-width="1" width="76" x="125" y="276" /><text fill="#fff" font-family="DejaVu Sans" font-size="14" font-weight="600" text-anchor="middle" x="163.0" y="300">Все</text><rect fill="#FFFFFF" height="36" rx="18" ry="18" stroke="#D9E2EC" stroke-width="1" width="100" x="211" y="276" /><text fill="#172033" font-family="DejaVu Sans" font-size="14" font-weight="600" text-anchor="middle" x="261.0" y="300">Frontend</text><rect fill="#FFFFFF" height="36" rx="18" ry="18" stroke="#D9E2EC" stroke-width="1" width="91" x="321" y="276" /><text fill="#172033" font-family="DejaVu Sans" font-size="14" font-weight="600" text-anchor="middle" x="366.5" y="300">Backend</text><rect fill="#FFFFFF" height="36" rx="18" ry="18" stroke="#D9E2EC" stroke-width="1" width="76" x="422" y="276" /><text fill="#172033" font-family="DejaVu Sans" font-size="14" font-weight="600" text-anchor="middle" x="460.0" y="300">UX/UI</text><rect fill="#FFFFFF" height="36" rx="18" ry="18" stroke="#D9E2EC" stroke-width="1" width="91" x="508" y="276" /><text fill="#172033" font-family="DejaVu Sans" font-size="14" font-weight="600" text-anchor="middle" x="553.5" y="300">Карьера</text><text fill="#667085" font-family="DejaVu Sans" font-size="14" font-weight="600" text-anchor="end" x="1328" y="300">24 события</text><rect fill="#FFFFFF" height="245" rx="18" ry="18" stroke="#D9E2EC" stroke-width="1" width="350" x="54" y="340" /><rect fill="#EEF2FF" height="92" rx="14" ry="14" stroke="none" stroke-width="1" width="314" x="72" y="358" /><rect fill="#FFFFFF" height="56" rx="12" ry="12" stroke="none" stroke-width="1" width="56" x="90" y="376" /><rect fill="none" height="30" rx="6" ry="6" stroke="#3B5CCC" stroke-width="2" width="36" x="100" y="390" /><line stroke="#3B5CCC" stroke-width="2" x1="100" x2="136" y1="401" y2="401" /><circle cx="346" cy="388" fill="#FFFFFF" r="18" /><text fill="#667085" font-family="DejaVu Sans" font-size="22" font-weight="700" text-anchor="middle" x="346" y="395">♡</text><rect fill="#EEF2FF" height="36" rx="18" ry="18" stroke="none" stroke-width="1" width="100" x="74" y="466" /><text fill="#3B5CCC" font-family="DejaVu Sans" font-size="14" font-weight="600" text-anchor="middle" x="124.0" y="490">Frontend</text><text fill="#172033" font-family="DejaVu Sans" font-size="19" font-weight="700" text-anchor="start" x="74" y="524">Семантический HTML</text><text fill="#667085" font-family="DejaVu Sans" font-size="14" font-weight="500" text-anchor="start" x="74" y="550">18 сен · 16:00 · ауд. 304</text><text fill="#12A594" font-family="DejaVu Sans" font-size="13" font-weight="600" text-anchor="end" x="384" y="572">18 мест</text><rect fill="#FFFFFF" height="245" rx="18" ry="18" stroke="#D9E2EC" stroke-width="1" width="350" x="420" y="340" /><rect fill="#EEF2FF" height="92" rx="14" ry="14" stroke="none" stroke-width="1" width="314" x="438" y="358" /><rect fill="#FFFFFF" height="56" rx="12" ry="12" stroke="none" stroke-width="1" width="56" x="456" y="376" /><rect fill="none" height="30" rx="6" ry="6" stroke="#3B5CCC" stroke-width="2" width="36" x="466" y="390" /><line stroke="#3B5CCC" stroke-width="2" x1="466" x2="502" y1="401" y2="401" /><circle cx="712" cy="388" fill="#FFFFFF" r="18" /><text fill="#D14343" font-family="DejaVu Sans" font-size="22" font-weight="700" text-anchor="middle" x="712" y="395">♥</text><rect fill="#EEF2FF" height="36" rx="18" ry="18" stroke="none" stroke-width="1" width="127" x="440" y="466" /><text fill="#3B5CCC" font-family="DejaVu Sans" font-size="14" font-weight="600" text-anchor="middle" x="503.5" y="490">Инструменты</text><text fill="#172033" font-family="DejaVu Sans" font-size="19" font-weight="700" text-anchor="start" x="440" y="524">Git без страха</text><text fill="#667085" font-family="DejaVu Sans" font-size="14" font-weight="500" text-anchor="start" x="440" y="550">19 сен · 14:30 · online</text><text fill="#12A594" font-family="DejaVu Sans" font-size="13" font-weight="600" text-anchor="end" x="750" y="572">8 мест</text><rect fill="#FFFFFF" height="245" rx="18" ry="18" stroke="#D9E2EC" stroke-width="1" width="350" x="786" y="340" /><rect fill="#EEF2FF" height="92" rx="14" ry="14" stroke="none" stroke-width="1" width="314" x="804" y="358" /><rect fill="#FFFFFF" height="56" rx="12" ry="12" stroke="none" stroke-width="1" width="56" x="822" y="376" /><rect fill="none" height="30" rx="6" ry="6" stroke="#3B5CCC" stroke-width="2" width="36" x="832" y="390" /><line stroke="#3B5CCC" stroke-width="2" x1="832" x2="868" y1="401" y2="401" /><circle cx="1078" cy="388" fill="#FFFFFF" r="18" /><text fill="#667085" font-family="DejaVu Sans" font-size="22" font-weight="700" text-anchor="middle" x="1078" y="395">♡</text><rect fill="#EEF2FF" height="36" rx="18" ry="18" stroke="none" stroke-width="1" width="76" x="806" y="466" /><text fill="#3B5CCC" font-family="DejaVu Sans" font-size="14" font-weight="600" text-anchor="middle" x="844.0" y="490">UX/UI</text><text fill="#172033" font-family="DejaVu Sans" font-size="19" font-weight="700" text-anchor="start" x="806" y="524">UX-разбор интерфейсов</text><text fill="#667085" font-family="DejaVu Sans" font-size="14" font-weight="500" text-anchor="start" x="806" y="550">21 сен · 17:00 · коворкинг</text><text fill="#12A594" font-family="DejaVu Sans" font-size="13" font-weight="600" text-anchor="end" x="1116" y="572">5 мест</text><rect fill="#FFFFFF" height="245" rx="18" ry="18" stroke="#D9E2EC" stroke-width="1" width="350" x="54" y="602" /><rect fill="#EEF2FF" height="92" rx="14" ry="14" stroke="none" stroke-width="1" width="314" x="72" y="620" /><rect fill="#FFFFFF" height="56" rx="12" ry="12" stroke="none" stroke-width="1" width="56" x="90" y="638" /><rect fill="none" height="30" rx="6" ry="6" stroke="#3B5CCC" stroke-width="2" width="36" x="100" y="652" /><line stroke="#3B5CCC" stroke-width="2" x1="100" x2="136" y1="663" y2="663" /><circle cx="346" cy="650" fill="#FFFFFF" r="18" /><text fill="#667085" font-family="DejaVu Sans" font-size="22" font-weight="700" text-anchor="middle" x="346" y="657">♡</text><rect fill="#EEF2FF" height="36" rx="18" ry="18" stroke="none" stroke-width="1" width="91" x="74" y="728" /><text fill="#3B5CCC" font-family="DejaVu Sans" font-size="14" font-weight="600" text-anchor="middle" x="119.5" y="752">Backend</text><text fill="#172033" font-family="DejaVu Sans" font-size="19" font-weight="700" text-anchor="start" x="74" y="786">REST API на практике</text><text fill="#667085" font-family="DejaVu Sans" font-size="14" font-weight="500" text-anchor="start" x="74" y="812">23 сен · 15:00 · ауд. 211</text><text fill="#12A594" font-family="DejaVu Sans" font-size="13" font-weight="600" text-anchor="end" x="384" y="834">14 мест</text><rect fill="#FFFFFF" height="245" rx="18" ry="18" stroke="#D9E2EC" stroke-width="1" width="350" x="420" y="602" /><rect fill="#EEF2FF" height="92" rx="14" ry="14" stroke="none" stroke-width="1" width="314" x="438" y="620" /><rect fill="#FFFFFF" height="56" rx="12" ry="12" stroke="none" stroke-width="1" width="56" x="456" y="638" /><rect fill="none" height="30" rx="6" ry="6" stroke="#3B5CCC" stroke-width="2" width="36" x="466" y="652" /><line stroke="#3B5CCC" stroke-width="2" x1="466" x2="502" y1="663" y2="663" /><circle cx="712" cy="650" fill="#FFFFFF" r="18" /><text fill="#667085" font-family="DejaVu Sans" font-size="22" font-weight="700" text-anchor="middle" x="712" y="657">♡</text><rect fill="#EEF2FF" height="36" rx="18" ry="18" stroke="none" stroke-width="1" width="91" x="440" y="728" /><text fill="#3B5CCC" font-family="DejaVu Sans" font-size="14" font-weight="600" text-anchor="middle" x="485.5" y="752">Карьера</text><text fill="#172033" font-family="DejaVu Sans" font-size="19" font-weight="700" text-anchor="start" x="440" y="786">Портфолио разработчика</text><text fill="#667085" font-family="DejaVu Sans" font-size="14" font-weight="500" text-anchor="start" x="440" y="812">25 сен · 18:00 · online</text><text fill="#12A594" font-family="DejaVu Sans" font-size="13" font-weight="600" text-anchor="end" x="750" y="834">32 места</text><rect fill="#FFFFFF" height="245" rx="18" ry="18" stroke="#D9E2EC" stroke-width="1" width="350" x="786" y="602" /><rect fill="#EEF2FF" height="92" rx="14" ry="14" stroke="none" stroke-width="1" width="314" x="804" y="620" /><rect fill="#FFFFFF" height="56" rx="12" ry="12" stroke="none" stroke-width="1" width="56" x="822" y="638" /><rect fill="none" height="30" rx="6" ry="6" stroke="#3B5CCC" stroke-width="2" width="36" x="832" y="652" /><line stroke="#3B5CCC" stroke-width="2" x1="832" x2="868" y1="663" y2="663" /><circle cx="1078" cy="650" fill="#FFFFFF" r="18" /><text fill="#D14343" font-family="DejaVu Sans" font-size="22" font-weight="700" text-anchor="middle" x="1078" y="657">♥</text><rect fill="#EEF2FF" height="36" rx="18" ry="18" stroke="none" stroke-width="1" width="100" x="806" y="728" /><text fill="#3B5CCC" font-family="DejaVu Sans" font-size="14" font-weight="600" text-anchor="middle" x="856.0" y="752">Frontend</text><text fill="#172033" font-family="DejaVu Sans" font-size="19" font-weight="700" text-anchor="start" x="806" y="786">Доступность в вебе</text><text fill="#667085" font-family="DejaVu Sans" font-size="14" font-weight="500" text-anchor="start" x="806" y="812">27 сен · 13:00 · ауд. 118</text><text fill="#12A594" font-family="DejaVu Sans" font-size="13" font-weight="600" text-anchor="end" x="1116" y="834">10 мест</text><rect fill="#FFFFFF" height="507" rx="18" ry="18" stroke="#D9E2EC" stroke-width="1" width="216" x="1168" y="340" /><text fill="#172033" font-family="DejaVu Sans" font-size="18" font-weight="700" text-anchor="start" x="1190" y="379">Мои фильтры</text><text fill="#667085" font-family="DejaVu Sans" font-size="14" font-weight="700" text-anchor="start" x="1190" y="420">Дата</text><rect fill="#F4F7FB" height="44" rx="10" ry="10" stroke="none" stroke-width="1" width="172" x="1190" y="438" /><text fill="#172033" font-family="DejaVu Sans" font-size="14" font-weight="500" text-anchor="start" x="1204" y="466">На этой неделе ▾</text><text fill="#667085" font-family="DejaVu Sans" font-size="14" font-weight="700" text-anchor="start" x="1190" y="520">Формат</text><rect fill="#3B5CCC" height="18" rx="4" stroke="#D9E2EC" width="18" x="1190" y="540" /><text fill="#fff" font-family="DejaVu Sans" font-size="12" font-weight="700" text-anchor="middle" x="1199" y="554">✓</text><text fill="#172033" font-family="DejaVu Sans" font-size="14" font-weight="500" text-anchor="start" x="1218" y="554">Очно</text><rect fill="#FFFFFF" height="18" rx="4" stroke="#D9E2EC" width="18" x="1190" y="578" /><text fill="#172033" font-family="DejaVu Sans" font-size="14" font-weight="500" text-anchor="start" x="1218" y="592">Онлайн</text><text fill="#667085" font-family="DejaVu Sans" font-size="14" font-weight="700" text-anchor="start" x="1190" y="640">Уровень</text><circle cx="1199" cy="668" fill="#3B5CCC" r="8" stroke="#D9E2EC" /><text fill="#172033" font-family="DejaVu Sans" font-size="14" font-weight="500" text-anchor="start" x="1218" y="673">Для всех</text><circle cx="1199" cy="702" fill="#FFFFFF" r="8" stroke="#D9E2EC" /><text fill="#172033" font-family="DejaVu Sans" font-size="14" font-weight="500" text-anchor="start" x="1218" y="707">Начальный</text><circle cx="1199" cy="736" fill="#FFFFFF" r="8" stroke="#D9E2EC" /><text fill="#172033" font-family="DejaVu Sans" font-size="14" font-weight="500" text-anchor="start" x="1218" y="741">Продвинутый</text><rect fill="#3B5CCC" height="44" rx="12" ry="12" stroke="none" stroke-width="1" width="172" x="1190" y="785" /><text fill="#FFFFFF" font-family="DejaVu Sans" font-size="15" font-weight="700" text-anchor="middle" x="1276.0" y="816">Применить</text><rect fill="#FFFFFF" height="40" rx="10" ry="10" stroke="#D9E2EC" stroke-width="1" width="40" x="500" y="898" /><text fill="#172033" font-family="DejaVu Sans" font-size="14" font-weight="700" text-anchor="middle" x="520" y="924">‹</text><rect fill="#3B5CCC" height="40" rx="10" ry="10" stroke="none" stroke-width="1" width="40" x="548" y="898" /><text fill="#fff" font-family="DejaVu Sans" font-size="14" font-weight="700" text-anchor="middle" x="568" y="924">1</text><rect fill="#FFFFFF" height="40" rx="10" ry="10" stroke="#D9E2EC" stroke-width="1" width="40" x="596" y="898" /><text fill="#172033" font-family="DejaVu Sans" font-size="14" font-weight="700" text-anchor="middle" x="616" y="924">2</text><rect fill="#FFFFFF" height="40" rx="10" ry="10" stroke="#D9E2EC" stroke-width="1" width="40" x="644" y="898" /><text fill="#172033" font-family="DejaVu Sans" font-size="14" font-weight="700" text-anchor="middle" x="664" y="924">3</text><rect fill="#FFFFFF" height="40" rx="10" ry="10" stroke="#D9E2EC" stroke-width="1" width="40" x="692" y="898" /><text fill="#172033" font-family="DejaVu Sans" font-size="14" font-weight="700" text-anchor="middle" x="712" y="924">…</text><rect fill="#FFFFFF" height="40" rx="10" ry="10" stroke="#D9E2EC" stroke-width="1" width="40" x="740" y="898" /><text fill="#172033" font-family="DejaVu Sans" font-size="14" font-weight="700" text-anchor="middle" x="760" y="924">8</text><rect fill="#FFFFFF" height="40" rx="10" ry="10" stroke="#D9E2EC" stroke-width="1" width="40" x="788" y="898" /><text fill="#172033" font-family="DejaVu Sans" font-size="14" font-weight="700" text-anchor="middle" x="808" y="924">›</text></svg>